<svg width="16" height="16" viewBox="0 0 16 16" fill="none" xmlns="http://www.w3.org/2000/svg">
<path d="M5.17445 5.9234C5.92338 6.19574 6.94466 6.33191 7.99998 6.33191C10.1447 6.33191 12.4596 5.78723 12.4596 4.18723C12.4596 1.87234 10.451 0 7.99998 0C5.54892 0 3.54041 1.87234 3.54041 4.18723C3.54041 4.73191 3.84679 5.44681 5.17445 5.9234Z" fill="#000000"/>
<path d="M13.6511 3.09789C15.1489 3.81278 16 4.80001 16 5.88937C16 7.21703 14.7404 8.37448 12.7319 9.02129L14.7404 11.8809C14.9447 12.1872 14.8766 12.5958 14.5702 12.8C14.4681 12.9021 14.3319 12.9362 14.1957 12.9362C13.9915 12.9362 13.7872 12.8341 13.6511 12.6638L11.4043 9.46384C11.4043 9.44682 11.3957 9.43831 11.3872 9.4298C11.3787 9.42129 11.3702 9.41278 11.3702 9.39576C10.5959 9.55062 9.76294 9.66634 8.87125 9.71325L8.87124 14.6422C8.87124 15.0193 8.56271 15.3278 8.18562 15.3278C7.80853 15.3278 7.5 15.0193 7.5 14.6422L7.5 9.72863C6.4673 9.69743 5.51056 9.57191 4.62979 9.39576C4.62979 9.41278 4.62128 9.42129 4.61277 9.4298C4.60426 9.43831 4.59575 9.44682 4.59575 9.46384L2.34894 12.6638C2.21277 12.8341 2.00851 12.9362 1.80426 12.9362C1.66809 12.9362 1.53191 12.8681 1.42979 12.8C1.1234 12.5958 1.05532 12.1872 1.25957 11.8809L3.26809 9.02129C1.25957 8.34044 0 7.18299 0 5.85533C0 4.76597 0.851064 3.77874 2.34894 3.06384C2.24681 3.43831 2.21277 3.81278 2.21277 4.18725C2.21277 4.83406 2.45106 6.40001 4.73191 7.18299C5.65106 7.48938 6.80851 7.65959 8 7.65959C11.6085 7.65959 13.7872 6.36597 13.7532 4.22129C13.7532 3.84682 13.7191 3.47235 13.6511 3.09789Z" fill="#000000"/>
</svg>
