<svg width="16" height="16" viewBox="0 0 16 16" fill="none" xmlns="http://www.w3.org/2000/svg">
<path fill-rule="evenodd" clip-rule="evenodd" d="M11.5113 0.811776C9.84828 -0.000584599 7.95502 -0.211178 6.15412 0.215877C4.35322 0.642932 2.75611 1.68121 1.63491 3.15381C0.51372 4.62641 -0.0621844 6.44221 0.00532706 8.29182C0.0728385 10.1414 0.779589 11.9104 2.00516 13.2973C3.23072 14.6843 4.89928 15.6034 6.72652 15.898C8.55376 16.1926 10.4266 15.8446 12.026 14.9131C12.7721 14.4786 13.4372 13.9297 14 13.2915V16H16V9.50001H10V11.5H12.8734C12.3843 12.181 11.7543 12.7569 11.0195 13.1848C9.81998 13.8834 8.41532 14.1445 7.04489 13.9235C5.67446 13.7025 4.42304 13.0132 3.50387 11.973C2.58469 10.9328 2.05463 9.60607 2.004 8.21887C1.95336 6.83166 2.38529 5.46981 3.22619 4.36536C4.06708 3.26091 5.26491 2.4822 6.61559 2.16191C7.96626 1.84162 9.38621 1.99956 10.6335 2.60883C11.8808 3.2181 12.8782 4.241 13.4558 5.50324L15.2744 4.67098C14.5043 2.988 13.1744 1.62414 11.5113 0.811776ZM6.99994 5.25V7.5858L5.71871 8.86702C5.32818 9.25754 5.32818 9.89071 5.71871 10.2812C6.10923 10.6718 6.74239 10.6718 7.13292 10.2812L8.55828 8.85587C8.84107 8.57309 8.99994 8.18955 8.99994 7.78963V5.25C8.99994 4.69772 8.55222 4.25 7.99994 4.25C7.44765 4.25 6.99994 4.69772 6.99994 5.25Z" fill="#000000"/>
</svg>
