<svg width="152" height="17" viewBox="0 0 152 17" fill="none" xmlns="http://www.w3.org/2000/svg">
<path d="M0 13.3333H6.53763V6.66667H16.9978V13.3333H23.5355V0H0V13.3333Z" fill="black"/>
<path d="M15.6903 8H7.84516V16H15.6903V8Z" fill="black"/>
<path d="M32.6947 13.3259V3.94493C32.6816 3.8191 32.6718 3.71214 32.6653 3.62405C32.6588 3.53597 32.6522 3.45103 32.6457 3.36924C32.6391 3.28744 32.6293 3.19936 32.6163 3.10498C32.6032 3.01061 32.5901 2.89421 32.577 2.75579C32.6163 2.89421 32.6489 3.01061 32.6751 3.10498C32.7012 3.19936 32.7307 3.29059 32.7634 3.37867L32.8614 3.64293C32.8941 3.73101 32.9366 3.83797 32.9889 3.96381L37.1272 13.3259H40.2849L44.4232 3.77506C44.5278 3.53597 44.603 3.35665 44.6488 3.23711C44.6945 3.11757 44.7501 2.95713 44.8155 2.75579C44.7763 3.00746 44.7436 3.22767 44.7174 3.41643C44.6913 3.60518 44.6782 3.80022 44.6782 4.00156V13.3259H47.9535V0H42.9915L39.3827 8.30512C39.2781 8.53163 39.1931 8.72982 39.1277 8.89969C39.0624 9.06957 39.0068 9.22057 38.961 9.3527C38.9153 9.48483 38.876 9.61381 38.8434 9.73964C38.8107 9.86548 38.7747 9.99761 38.7355 10.136C38.6832 9.94727 38.6341 9.77739 38.5884 9.62639C38.5426 9.47539 38.4936 9.32753 38.4413 9.18282C38.389 9.03811 38.3302 8.88396 38.2648 8.72038C38.1994 8.55679 38.1209 8.36804 38.0294 8.15412L34.4206 0H29.4194V13.3259H32.6947Z" fill="black"/>
<path fill-rule="evenodd" clip-rule="evenodd" d="M56.1354 13.7223C57.0637 13.7223 57.9398 13.6091 58.7635 13.3826C59.5873 13.1561 60.3064 12.8163 60.9209 12.3633C61.5355 11.9103 62.0225 11.3535 62.3821 10.6928C62.7417 10.0322 62.9215 9.26776 62.9215 8.3995C62.9215 7.71999 62.7776 7.07508 62.49 6.46478C62.2023 5.85448 61.7774 5.31968 61.2151 4.86038C60.6529 4.40109 59.9566 4.03302 59.1264 3.75618C58.2961 3.47934 57.3383 3.34092 56.2531 3.34092C55.2594 3.34092 54.3408 3.46047 53.4975 3.69955C52.6541 3.93864 51.9219 4.28469 51.3008 4.73769C50.6797 5.1907 50.1927 5.73808 49.8397 6.37984C49.4866 7.0216 49.3101 7.74516 49.3101 8.5505C49.3101 9.34326 49.4768 10.0574 49.8102 10.6928C50.1437 11.3283 50.6078 11.8694 51.2028 12.3161C51.7977 12.7628 52.5135 13.1089 53.3504 13.3543C54.1872 13.5996 55.1155 13.7223 56.1354 13.7223ZM54.2231 11.0515C54.6873 11.2969 55.3313 11.4195 56.155 11.4195C56.8218 11.4195 57.3743 11.3283 57.8123 11.1459C58.2503 10.9634 58.6034 10.7275 58.8714 10.438C59.1394 10.1486 59.3258 9.82773 59.4304 9.47539C59.535 9.12305 59.5873 8.7833 59.5873 8.45613C59.5873 8.02829 59.5056 7.63505 59.3421 7.27642C59.1787 6.91779 58.94 6.61264 58.6262 6.36097C58.3124 6.1093 57.93 5.9174 57.4789 5.78527C57.0278 5.65315 56.5211 5.59967 55.9589 5.62483C55.3705 5.65 54.8671 5.75067 54.4487 5.92684C54.0303 6.10301 53.6903 6.32636 53.4288 6.59691C53.1673 6.86746 52.9744 7.17575 52.8502 7.5218C52.726 7.86785 52.6639 8.22333 52.6639 8.58825C52.6639 8.72667 52.6933 8.95003 52.7522 9.25832C52.811 9.56662 52.9548 9.88121 53.1837 10.2021C53.4125 10.523 53.759 10.8061 54.2231 11.0515Z" fill="black"/>
<path d="M67.7885 13.4014C68.1808 13.4014 68.573 13.3857 68.9653 13.3543C69.3575 13.3228 69.7498 13.2882 70.1421 13.2504V11.0232C69.9721 11.0483 69.8217 11.0641 69.691 11.0704C69.5602 11.0766 69.3837 11.0798 69.1614 11.0798C68.7038 11.0798 68.3802 11.0074 68.1906 10.8627C68.001 10.718 67.9062 10.4129 67.9062 9.94727V5.62483H70.1224V3.77506H67.9062V1.22689H64.6897V3.77506H63.0814V5.62483H64.6897V10.74C64.6897 10.9162 64.6962 11.1112 64.7093 11.3252C64.7224 11.5391 64.7681 11.7499 64.8466 11.9575C64.925 12.1651 65.0427 12.3633 65.1996 12.5521C65.3565 12.7408 65.5788 12.9107 65.8664 13.0617C66.141 13.2001 66.445 13.2913 66.7784 13.3354C67.1119 13.3794 67.4486 13.4014 67.7885 13.4014Z" fill="black"/>
<path d="M74.5762 7.83324V13.3259H71.3401V0H74.5762V4.98307C74.6416 4.92016 74.7331 4.83522 74.8508 4.72826C74.9685 4.6213 75.1188 4.51119 75.3019 4.39794C75.7988 4.07077 76.3414 3.84426 76.9298 3.71843C77.5181 3.59259 78.1196 3.52968 78.7341 3.52968C79.0349 3.52968 79.3618 3.54855 79.7148 3.5863C80.0678 3.62405 80.4241 3.69326 80.7837 3.79393C81.1433 3.8946 81.4865 4.02987 81.8134 4.19975C82.1403 4.36963 82.4344 4.58669 82.6959 4.85095C82.9052 5.06487 83.0686 5.28508 83.1863 5.51158C83.304 5.73808 83.3889 5.96459 83.4412 6.19109C83.4935 6.41759 83.5262 6.64095 83.5393 6.86116C83.5524 7.08138 83.5589 7.30473 83.5589 7.53124V13.3259H80.3032V8.13525C80.3032 7.87099 80.2868 7.59415 80.2541 7.30473C80.2215 7.01531 80.094 6.74477 79.8717 6.4931L79.6952 6.32322C79.6037 6.23513 79.4664 6.1439 79.2833 6.04953C79.1003 5.95515 78.8682 5.87021 78.587 5.79471C78.3059 5.71921 77.9627 5.68146 77.5574 5.68146C77.0474 5.68146 76.5996 5.73808 76.2139 5.85134C75.8282 5.96459 75.498 6.12817 75.2234 6.34209C74.9227 6.59376 74.7397 6.83285 74.6743 7.05935C74.6089 7.28586 74.5762 7.54382 74.5762 7.83324Z" fill="black"/>
<path fill-rule="evenodd" clip-rule="evenodd" d="M91.1013 13.7035C92.5004 13.7035 93.7785 13.4518 94.9356 12.9484C96.0928 12.4451 97.0375 11.6146 97.7697 10.4569L94.4159 10.136C94.3374 10.2241 94.2296 10.3437 94.0923 10.4947C93.955 10.6457 93.7621 10.7904 93.5137 10.9288C93.2653 11.0672 92.958 11.1899 92.5919 11.2969C92.2258 11.4038 91.7812 11.4573 91.2582 11.4573C90.7221 11.4573 90.1991 11.3755 89.6892 11.2119C89.1792 11.0483 88.7543 10.7652 88.4143 10.3625C88.2313 10.1612 88.094 9.93469 88.0025 9.68302C87.9109 9.43135 87.8456 9.23001 87.8063 9.07901H97.652C97.652 8.83992 97.6422 8.56623 97.6226 8.25793C97.603 7.94964 97.5507 7.62561 97.4657 7.28586C97.3807 6.9461 97.2467 6.6032 97.0636 6.25715C96.8806 5.91111 96.6256 5.56821 96.2987 5.22845C95.9195 4.83836 95.5011 4.52378 95.0435 4.28469C94.5859 4.0456 94.1249 3.85999 93.6608 3.72787C93.1966 3.59574 92.7455 3.50766 92.3075 3.46361C91.8695 3.41957 91.4805 3.39755 91.1405 3.39755C90.2514 3.39755 89.4081 3.49507 88.6105 3.69012C87.8129 3.88516 87.1068 4.19031 86.4923 4.60557C85.8777 5.02082 85.3907 5.54619 85.0311 6.18165C84.6715 6.81712 84.4917 7.57528 84.4917 8.45613C84.4917 9.13563 84.6356 9.82773 84.9232 10.5324C85.2109 11.2371 85.6881 11.8474 86.355 12.3633C87.0218 12.8918 87.7671 13.2473 88.5909 13.4298C89.4146 13.6122 90.2514 13.7035 91.1013 13.7035ZM87.5389 7.36136H93.717C93.6908 7.18519 93.6222 6.97442 93.511 6.72904C93.3999 6.48366 93.1744 6.26659 92.8344 6.07784C92.5991 5.93942 92.2951 5.82302 91.9224 5.72865C91.5498 5.63427 91.1477 5.58708 90.7162 5.58708C90.337 5.58708 89.948 5.63112 89.5492 5.71921C89.1504 5.80729 88.8007 5.94571 88.5 6.13447C88.2123 6.31063 88.0064 6.50253 87.8821 6.71016C87.7579 6.91779 87.6435 7.13486 87.5389 7.36136Z" fill="black"/>
<path d="M102.223 8.72038C102.223 8.30512 102.292 7.91818 102.429 7.55955C102.567 7.20092 102.884 6.89577 103.381 6.6441C103.577 6.54343 103.786 6.46478 104.008 6.40816C104.231 6.35153 104.443 6.31063 104.646 6.28547C104.848 6.2603 105.031 6.24457 105.195 6.23828C105.358 6.23199 105.473 6.22884 105.538 6.22884C105.708 6.22884 105.855 6.23199 105.979 6.23828C106.104 6.24457 106.238 6.25401 106.381 6.26659V3.45418C105.662 3.46676 105.064 3.54226 104.587 3.68068C104.11 3.8191 103.714 3.98898 103.4 4.19031C103.086 4.39165 102.841 4.60242 102.665 4.82263C102.488 5.04285 102.341 5.24104 102.223 5.4172V3.77506H98.9677V13.3259H102.223V8.72038Z" fill="black"/>
<path d="M114.776 13.5525C114.246 13.628 113.628 13.6657 112.922 13.6657C111.785 13.6657 110.837 13.5713 110.078 13.3826C109.32 13.1938 108.702 12.9453 108.225 12.637C107.748 12.3287 107.388 11.9732 107.146 11.5705C106.904 11.1679 106.725 10.7526 106.607 10.3248L110.078 10.0794C110.17 10.394 110.314 10.6457 110.51 10.8344C110.706 11.0232 110.938 11.171 111.206 11.278C111.474 11.3849 111.765 11.4573 112.079 11.495C112.393 11.5328 112.706 11.5517 113.02 11.5517C113.321 11.5517 113.612 11.5422 113.893 11.5234C114.174 11.5045 114.452 11.4447 114.727 11.344C114.766 11.3315 114.825 11.3094 114.903 11.278C114.982 11.2465 115.063 11.1993 115.148 11.1364C115.233 11.0735 115.305 10.998 115.364 10.9099C115.423 10.8218 115.452 10.7086 115.452 10.5702C115.452 10.243 115.259 10.0228 114.874 9.90952C114.488 9.79627 113.922 9.68931 113.177 9.58864C112.785 9.53831 112.393 9.50056 112 9.47539C111.608 9.45022 111.216 9.41247 110.824 9.36214C110.562 9.33697 110.225 9.28664 109.814 9.21114C109.402 9.13564 109 9.00351 108.607 8.81476C108.215 8.626 107.875 8.3586 107.588 8.01256C107.3 7.66651 107.156 7.20406 107.156 6.62522C107.156 6.05896 107.3 5.56506 107.588 5.14351C107.875 4.72197 108.277 4.37592 108.794 4.10537C109.31 3.83483 109.921 3.63349 110.628 3.50136C111.334 3.36924 112.105 3.30317 112.942 3.30317C113.19 3.30317 113.494 3.31261 113.854 3.33149C114.213 3.35036 114.596 3.39755 115.001 3.47305C115.407 3.54855 115.815 3.65866 116.227 3.80337C116.639 3.94808 117.028 4.14627 117.394 4.39794C117.891 4.75028 118.228 5.10576 118.404 5.46439C118.581 5.82302 118.702 6.11559 118.767 6.34209L115.413 6.54972C115.269 6.20997 114.985 5.92998 114.56 5.70977C114.135 5.48956 113.53 5.37945 112.746 5.37945C112.079 5.37945 111.536 5.46125 111.118 5.62483C110.699 5.78842 110.49 6.02121 110.49 6.32322C110.49 6.52455 110.575 6.67556 110.745 6.77623C110.915 6.87689 111.111 6.95239 111.334 7.00273C111.477 7.04048 111.621 7.07194 111.765 7.09711C111.909 7.12227 112.105 7.15058 112.353 7.18204C112.602 7.2135 112.935 7.24811 113.354 7.28586C113.772 7.32361 114.334 7.37394 115.04 7.43686C115.42 7.47461 115.805 7.5218 116.198 7.57842C116.59 7.63505 116.956 7.74516 117.296 7.90874C117.78 8.12266 118.152 8.4341 118.414 8.84307C118.675 9.25203 118.806 9.71448 118.806 10.2304C118.806 10.6331 118.721 11.02 118.551 11.3912C118.381 11.7624 118.146 12.0802 117.845 12.3444C117.662 12.508 117.433 12.6685 117.159 12.8258C116.884 12.983 116.551 13.1246 116.158 13.2504C115.766 13.3763 115.305 13.4769 114.776 13.5525Z" fill="black"/>
<path d="M123.213 13.3259V7.83324C123.213 7.54382 123.245 7.28586 123.311 7.05935C123.376 6.83285 123.559 6.59376 123.86 6.34209C124.134 6.12817 124.464 5.96459 124.85 5.85134C125.236 5.73808 125.684 5.68146 126.194 5.68146C126.599 5.68146 126.942 5.71921 127.223 5.79471C127.504 5.87021 127.737 5.95515 127.92 6.04953C128.103 6.1439 128.24 6.23513 128.331 6.32322L128.508 6.4931C128.73 6.74477 128.858 7.01531 128.89 7.30473C128.923 7.59415 128.939 7.87099 128.939 8.13525V13.3259H132.195V7.53124C132.195 7.30473 132.189 7.08138 132.176 6.86116C132.163 6.64095 132.13 6.41759 132.078 6.19109C132.025 5.96459 131.94 5.73808 131.823 5.51158C131.705 5.28508 131.541 5.06487 131.332 4.85095C131.071 4.58669 130.777 4.36963 130.45 4.19975C130.123 4.02987 129.78 3.8946 129.42 3.79393C129.06 3.69326 128.704 3.62405 128.351 3.5863C127.998 3.54855 127.671 3.52968 127.37 3.52968C126.756 3.52968 126.154 3.59259 125.566 3.71843C124.978 3.84426 124.435 4.07077 123.938 4.39794C123.755 4.51119 123.605 4.6213 123.487 4.72826C123.369 4.83522 123.278 4.92016 123.213 4.98307V0H119.976V13.3259H123.213Z" fill="black"/>
<path d="M137.375 0V2.11403H134.158V0H137.375Z" fill="black"/>
<path d="M137.375 3.77506H134.158V13.3259H137.375V3.77506Z" fill="black"/>
<path fill-rule="evenodd" clip-rule="evenodd" d="M150.252 12.3444C149.273 13.1853 147.859 13.5616 146.396 13.5616C145.325 13.5616 144.327 13.2849 143.484 12.8069C143.151 12.6181 142.843 12.398 142.564 12.151V17H139.318V3.77506H142.564V4.89195C143.549 3.9641 144.903 3.54855 146.396 3.54855C147.833 3.54855 149.278 4.02305 150.252 4.89195C151.32 5.84429 151.851 7.25518 151.851 8.66832C151.851 10.0585 151.29 11.4536 150.252 12.3444ZM145.448 11.6094C145.018 11.6094 144.609 11.5494 144.221 11.4294C143.833 11.3093 143.49 11.1259 143.192 10.8791C142.894 10.6324 142.655 10.3189 142.475 9.93878C142.295 9.55863 142.204 9.10845 142.204 8.58825C142.204 8.21477 142.267 7.84796 142.392 7.48782C142.516 7.12768 142.703 6.80422 142.953 6.51744C143.202 6.23067 143.521 6.00058 143.909 5.82718C144.297 5.65378 144.755 5.56707 145.281 5.56707C145.988 5.56707 146.553 5.67378 146.976 5.8872C147.398 6.10062 147.728 6.36405 147.963 6.67751C148.199 6.99096 148.355 7.32109 148.431 7.66789C148.507 8.0147 148.545 8.31481 148.545 8.56824C148.545 8.9684 148.483 9.35188 148.358 9.71869C148.233 10.0855 148.046 10.409 147.797 10.6891C147.547 10.9692 147.229 11.1926 146.841 11.3593C146.452 11.5261 145.988 11.6094 145.448 11.6094Z" fill="black"/>
</svg>
