<svg width="117" height="13" viewBox="0 0 117 13" fill="none" xmlns="http://www.w3.org/2000/svg">
<path d="M0 10H5V5H13V10H18V0H0V10Z" fill="white"/>
<path d="M12 6H6V12H12V6Z" fill="white"/>
<path d="M25.005 9.99446V2.9587C24.995 2.86432 24.9875 2.7841 24.9825 2.71804C24.9775 2.65198 24.9725 2.58827 24.9675 2.52693C24.9625 2.46558 24.955 2.39952 24.945 2.32874C24.935 2.25796 24.925 2.17066 24.915 2.06684C24.945 2.17066 24.97 2.25796 24.99 2.32874C25.01 2.39952 25.0325 2.46794 25.0575 2.53401L25.1325 2.7322C25.1575 2.79826 25.19 2.87848 25.23 2.97286L28.395 9.99446H30.81L33.975 2.83129C34.055 2.65198 34.1125 2.51749 34.1475 2.42783C34.1825 2.33817 34.225 2.21785 34.275 2.06684C34.245 2.2556 34.22 2.42075 34.2 2.56232C34.18 2.70388 34.17 2.85017 34.17 3.00117V9.99446H36.675V0H32.88L30.12 6.22884C30.04 6.39872 29.975 6.54736 29.925 6.67477C29.875 6.80218 29.8325 6.91543 29.7975 7.01453C29.7625 7.11362 29.7325 7.21036 29.7075 7.30473C29.6825 7.39911 29.655 7.4982 29.625 7.60202C29.585 7.46045 29.5475 7.33305 29.5125 7.21979C29.4775 7.10654 29.44 6.99565 29.4 6.88712C29.36 6.77858 29.315 6.66297 29.265 6.54028C29.215 6.41759 29.155 6.27603 29.085 6.11559L26.325 0H22.5V9.99446H25.005Z" fill="white"/>
<path fillRule="evenodd" clipRule="evenodd" d="M42.9325 10.2917C43.6425 10.2917 44.3125 10.2068 44.9425 10.0369C45.5725 9.86705 46.1225 9.61224 46.5925 9.27248C47.0625 8.93272 47.435 8.51511 47.71 8.01963C47.985 7.52416 48.1225 6.95082 48.1225 6.29962C48.1225 5.78999 48.0125 5.30631 47.7925 4.84859C47.5725 4.39086 47.2475 3.98976 46.8175 3.64529C46.3875 3.30081 45.855 3.02476 45.22 2.81714C44.585 2.60951 43.8525 2.50569 43.0225 2.50569C42.2625 2.50569 41.56 2.59535 40.915 2.77467C40.27 2.95398 39.71 3.21352 39.235 3.55327C38.76 3.89303 38.3875 4.30356 38.1175 4.78488C37.8475 5.2662 37.7125 5.80887 37.7125 6.41288C37.7125 7.00745 37.84 7.54303 38.095 8.01963C38.35 8.49623 38.705 8.90205 39.16 9.23709C39.615 9.57213 40.1625 9.83166 40.8025 10.0157C41.4425 10.1997 42.1525 10.2917 42.9325 10.2917ZM41.47 8.28861C41.825 8.47264 42.3175 8.56466 42.9475 8.56466C43.4575 8.56466 43.88 8.49623 44.215 8.35939C44.55 8.22254 44.82 8.04559 45.025 7.82852C45.23 7.61146 45.3725 7.3708 45.4525 7.10654C45.5325 6.84229 45.5725 6.58747 45.5725 6.34209C45.5725 6.02121 45.51 5.72629 45.385 5.45731C45.26 5.18834 45.0775 4.95948 44.8375 4.77073C44.5975 4.58197 44.305 4.43805 43.96 4.33895C43.615 4.23986 43.2275 4.19975 42.7975 4.21863C42.3475 4.2375 41.9625 4.313 41.6425 4.44513C41.3225 4.57726 41.0625 4.74477 40.8625 4.94768C40.6625 5.15059 40.515 5.38181 40.42 5.64135C40.325 5.90088 40.2775 6.1675 40.2775 6.44119C40.2775 6.545 40.3 6.71252 40.345 6.94374C40.39 7.17496 40.5 7.41091 40.675 7.65157C40.85 7.89223 41.115 8.10457 41.47 8.28861Z" fill="white"/>
<path d="M51.8448 10.0511C52.1448 10.0511 52.4448 10.0393 52.7448 10.0157C53.0448 9.9921 53.3448 9.96615 53.6448 9.93783V8.26737C53.5148 8.28625 53.3998 8.29804 53.2998 8.30276C53.1998 8.30748 53.0648 8.30984 52.8948 8.30984C52.5448 8.30984 52.2973 8.25558 52.1523 8.14704C52.0073 8.03851 51.9348 7.80965 51.9348 7.46045V4.21862H53.6298V2.83129H51.9348V0.92017H49.4748V2.83129H48.2448V4.21862H49.4748V8.05503C49.4748 8.18715 49.4798 8.33344 49.4898 8.49388C49.4998 8.65432 49.5348 8.8124 49.5948 8.96812C49.6548 9.12384 49.7448 9.27248 49.8648 9.41405C49.9848 9.55561 50.1548 9.68302 50.3748 9.79627C50.5848 9.90008 50.8173 9.96851 51.0723 10.0015C51.3273 10.0346 51.5848 10.0511 51.8448 10.0511Z" fill="white"/>
<path d="M57.0361 5.87493V9.99446H54.5611V0H57.0361V3.73731C57.0861 3.69012 57.1561 3.62641 57.2461 3.54619C57.3361 3.46597 57.4511 3.38339 57.5911 3.29845C57.9711 3.05308 58.3861 2.8832 58.8361 2.78882C59.2861 2.69445 59.7461 2.64726 60.2161 2.64726C60.4461 2.64726 60.6961 2.66141 60.9661 2.68973C61.2361 2.71804 61.5086 2.76995 61.7836 2.84545C62.0586 2.92095 62.3211 3.0224 62.5711 3.14981C62.8211 3.27722 63.0461 3.44002 63.2461 3.63821C63.4061 3.79865 63.5311 3.96381 63.6211 4.13369C63.7111 4.30356 63.7761 4.47344 63.8161 4.64332C63.8561 4.8132 63.8811 4.98071 63.8911 5.14587C63.9011 5.31103 63.9061 5.47855 63.9061 5.64843V9.99446H61.4161V6.10143C61.4161 5.90324 61.4036 5.69562 61.3786 5.47855C61.3536 5.26148 61.2561 5.05857 61.0861 4.86982L60.9511 4.74241C60.8811 4.67635 60.7761 4.60793 60.6361 4.53715C60.4961 4.46636 60.3186 4.40266 60.1036 4.34603C59.8886 4.28941 59.6261 4.26109 59.3161 4.26109C58.9261 4.26109 58.5836 4.30356 58.2886 4.3885C57.9936 4.47344 57.7411 4.59613 57.5311 4.75657C57.3011 4.94532 57.1611 5.12464 57.1111 5.29452C57.0611 5.46439 57.0361 5.65786 57.0361 5.87493Z" fill="white"/>
<path fillRule="evenodd" clipRule="evenodd" d="M69.6745 10.2776C70.7445 10.2776 71.722 10.0888 72.607 9.71133C73.492 9.33383 74.2145 8.71094 74.7745 7.84268L72.2095 7.60202C72.1495 7.66808 72.067 7.75774 71.962 7.87099C71.857 7.98424 71.7095 8.09278 71.5195 8.19659C71.3295 8.3004 71.0945 8.39242 70.8145 8.47264C70.5345 8.55286 70.1945 8.59297 69.7945 8.59297C69.3845 8.59297 68.9845 8.53163 68.5945 8.40894C68.2045 8.28625 67.8795 8.0739 67.6195 7.7719C67.4795 7.62089 67.3745 7.45102 67.3045 7.26226C67.2345 7.07351 67.1845 6.92251 67.1545 6.80926H74.6845C74.6845 6.62994 74.677 6.42467 74.662 6.19345C74.647 5.96223 74.607 5.71921 74.542 5.46439C74.477 5.20958 74.3745 4.9524 74.2345 4.69287C74.0945 4.43333 73.8995 4.17616 73.6495 3.92134C73.3595 3.62877 73.0395 3.39283 72.6895 3.21352C72.3395 3.0342 71.987 2.895 71.632 2.7959C71.277 2.69681 70.932 2.63074 70.597 2.59771C70.262 2.56468 69.9645 2.54816 69.7045 2.54816C69.0245 2.54816 68.3795 2.6213 67.7695 2.76759C67.1595 2.91387 66.6195 3.14273 66.1495 3.45418C65.6795 3.76562 65.307 4.15964 65.032 4.63624C64.757 5.11284 64.6195 5.68146 64.6195 6.34209C64.6195 6.85173 64.7295 7.3708 64.9495 7.8993C65.1695 8.42781 65.5345 8.88554 66.0445 9.27248C66.5545 9.66886 67.1245 9.93547 67.7545 10.0723C68.3845 10.2092 69.0245 10.2776 69.6745 10.2776ZM66.95 5.52102H71.675C71.655 5.38889 71.6025 5.23081 71.5175 5.04678C71.4325 4.86274 71.26 4.69994 71 4.55838C70.82 4.45457 70.5875 4.36727 70.3025 4.29648C70.0175 4.2257 69.71 4.19031 69.38 4.19031C69.09 4.19031 68.7925 4.22334 68.4875 4.28941C68.1825 4.35547 67.915 4.45928 67.685 4.60085C67.465 4.73298 67.3075 4.8769 67.2125 5.03262C67.1175 5.18834 67.03 5.35114 66.95 5.52102Z" fill="white"/>
<path d="M78.1808 6.54028C78.1808 6.22884 78.2333 5.93863 78.3382 5.66966C78.4433 5.40069 78.6858 5.17183 79.0658 4.98307C79.2158 4.90757 79.3757 4.84859 79.5458 4.80612C79.7158 4.76365 79.8783 4.73298 80.0333 4.7141C80.1883 4.69523 80.3283 4.68343 80.4533 4.67871C80.5783 4.67399 80.6657 4.67163 80.7158 4.67163C80.8458 4.67163 80.9583 4.67399 81.0533 4.67871C81.1483 4.68343 81.2507 4.69051 81.3607 4.69994V2.59063C80.8108 2.60007 80.3533 2.6567 79.9883 2.76051C79.6233 2.86432 79.3207 2.99173 79.0807 3.14273C78.8408 3.29374 78.6533 3.45182 78.5182 3.61698C78.3832 3.78213 78.2708 3.93078 78.1808 4.0629V2.83129H75.6908V9.99446H78.1808V6.54028Z" fill="white"/>
<path d="M87.7807 10.1643C87.3757 10.221 86.9032 10.2493 86.3632 10.2493C85.4932 10.2493 84.7682 10.1785 84.1882 10.0369C83.6082 9.89536 83.1357 9.70897 82.7707 9.47775C82.4057 9.24653 82.1307 8.97991 81.9457 8.67791C81.7607 8.37591 81.6232 8.06446 81.5332 7.74358L84.1882 7.55955C84.2582 7.79549 84.3682 7.98424 84.5182 8.12581C84.6682 8.26737 84.8457 8.37826 85.0507 8.45848C85.2557 8.5387 85.4782 8.59297 85.7182 8.62128C85.9582 8.6496 86.1982 8.66375 86.4382 8.66375C86.6682 8.66375 86.8907 8.65667 87.1057 8.64252C87.3207 8.62836 87.5332 8.58353 87.7432 8.50803C87.7732 8.49859 87.8182 8.48208 87.8782 8.45848C87.9382 8.43489 88.0007 8.3995 88.0657 8.35231C88.1307 8.30512 88.1857 8.2485 88.2307 8.18243C88.2757 8.11637 88.2982 8.03143 88.2982 7.92762C88.2982 7.68224 88.1507 7.51708 87.8557 7.43214C87.5607 7.3472 87.1282 7.26698 86.5582 7.19148C86.2582 7.15373 85.9582 7.12542 85.6582 7.10654C85.3582 7.08767 85.0582 7.05935 84.7582 7.0216C84.5582 7.00273 84.3007 6.96498 83.9857 6.90835C83.6707 6.85173 83.3632 6.75263 83.0632 6.61107C82.7632 6.4695 82.5032 6.26895 82.2832 6.00942C82.0632 5.74988 81.9532 5.40305 81.9532 4.96892C81.9532 4.54422 82.0632 4.1738 82.2832 3.85764C82.5032 3.54147 82.8107 3.28194 83.2057 3.07903C83.6007 2.87612 84.0682 2.72512 84.6082 2.62602C85.1482 2.52693 85.7382 2.47738 86.3782 2.47738C86.5682 2.47738 86.8007 2.48446 87.0757 2.49862C87.3507 2.51277 87.6432 2.54816 87.9532 2.60479C88.2632 2.66141 88.5757 2.74399 88.8907 2.85253C89.2057 2.96106 89.5032 3.1097 89.7832 3.29845C90.1632 3.56271 90.4207 3.82932 90.5557 4.09829C90.6907 4.36727 90.7832 4.58669 90.8332 4.75657L88.2682 4.91229C88.1582 4.65747 87.9407 4.44749 87.6157 4.28233C87.2907 4.11717 86.8282 4.03459 86.2282 4.03459C85.7182 4.03459 85.3032 4.09594 84.9832 4.21863C84.6632 4.34131 84.5032 4.51591 84.5032 4.74241C84.5032 4.89342 84.5682 5.00667 84.6982 5.08217C84.8282 5.15767 84.9782 5.2143 85.1482 5.25205C85.2582 5.28036 85.3682 5.30395 85.4782 5.32283C85.5882 5.3417 85.7382 5.36294 85.9282 5.38653C86.1182 5.41013 86.3732 5.43608 86.6932 5.46439C87.0132 5.49271 87.4432 5.53046 87.9832 5.57765C88.2732 5.60596 88.5682 5.64135 88.8682 5.68382C89.1682 5.72629 89.4482 5.80887 89.7082 5.93156C90.0782 6.092 90.3632 6.32558 90.5632 6.6323C90.7632 6.93902 90.8632 7.28586 90.8632 7.6728C90.8632 7.97481 90.7982 8.26501 90.6682 8.54342C90.5382 8.82183 90.3582 9.06013 90.1282 9.25832C89.9882 9.38101 89.8132 9.50134 89.6032 9.61931C89.3932 9.73728 89.1382 9.84346 88.8382 9.93783C88.5382 10.0322 88.1857 10.1077 87.7807 10.1643Z" fill="white"/>
<path d="M94.2333 9.99446V5.87493C94.2333 5.65786 94.2583 5.46439 94.3083 5.29452C94.3583 5.12464 94.4983 4.94532 94.7282 4.75657C94.9382 4.59613 95.1908 4.47344 95.4857 4.3885C95.7808 4.30356 96.1232 4.26109 96.5133 4.26109C96.8232 4.26109 97.0857 4.28941 97.3007 4.34603C97.5157 4.40266 97.6932 4.46636 97.8332 4.53715C97.9733 4.60793 98.0782 4.67635 98.1482 4.74241L98.2832 4.86982C98.4532 5.05857 98.5507 5.26148 98.5758 5.47855C98.6008 5.69562 98.6132 5.90324 98.6132 6.10143V9.99446H101.103V5.64843C101.103 5.47855 101.098 5.31103 101.088 5.14587C101.078 4.98071 101.053 4.8132 101.013 4.64332C100.973 4.47344 100.908 4.30356 100.818 4.13369C100.728 3.96381 100.603 3.79865 100.443 3.63821C100.243 3.44002 100.018 3.27722 99.7682 3.14981C99.5182 3.0224 99.2557 2.92095 98.9807 2.84545C98.7057 2.76995 98.4333 2.71804 98.1632 2.68973C97.8932 2.66141 97.6432 2.64726 97.4132 2.64726C96.9432 2.64726 96.4832 2.69445 96.0332 2.78882C95.5832 2.8832 95.1683 3.05308 94.7883 3.29845C94.6482 3.38339 94.5332 3.46597 94.4433 3.54619C94.3532 3.62641 94.2832 3.69012 94.2333 3.73731V0H91.7582V9.99446H94.2333Z" fill="white"/>
<path d="M105.065 0V1.58552H102.605V0H105.065Z" fill="white"/>
<path d="M105.065 2.83129H102.605V9.99446H105.065V2.83129Z" fill="white"/>
<path fillRule="evenodd" clipRule="evenodd" d="M114.913 9.25832C114.164 9.88901 113.083 10.1712 111.964 10.1712C111.145 10.1712 110.381 9.96367 109.737 9.60515C109.483 9.46358 109.247 9.29846 109.033 9.11328V12.75H106.551V2.83129H109.033V3.66896C109.787 2.97307 110.822 2.66141 111.964 2.66141C113.063 2.66141 114.168 3.01729 114.913 3.66896C115.73 4.38321 116.136 5.44138 116.136 6.50124C116.136 7.54387 115.707 8.59021 114.913 9.25832ZM111.239 8.70707C110.91 8.70707 110.597 8.66205 110.301 8.57202C110.004 8.48198 109.741 8.34443 109.514 8.15936C109.286 7.97429 109.103 7.73919 108.965 7.45408C108.827 7.16897 108.758 6.83134 108.758 6.44119C108.758 6.16108 108.806 5.88597 108.901 5.61587C108.997 5.34576 109.14 5.10317 109.331 4.88808C109.522 4.673 109.765 4.50043 110.062 4.37038C110.359 4.24033 110.709 4.17531 111.112 4.17531C111.652 4.17531 112.084 4.25534 112.407 4.4154C112.731 4.57546 112.982 4.77304 113.163 5.00813C113.343 5.24322 113.462 5.49082 113.52 5.75092C113.579 6.01102 113.608 6.23611 113.608 6.42618C113.608 6.7263 113.56 7.01391 113.465 7.28902C113.369 7.56413 113.226 7.80672 113.035 8.0168C112.845 8.22688 112.601 8.39445 112.304 8.5195C112.007 8.64455 111.652 8.70707 111.239 8.70707Z" fill="white"/>
</svg>
